<svg xmlns="http://www.w3.org/2000/svg" width="223" height="30" viewBox="0 0 223 30" fill="none"><path d="M16.435 28.7564L26.6996 5.65967L18.5104 10.459C17.9495 10.7589 17.5569 11.2589 17.2764 11.8088L9.81641 28.7564H16.435Z" fill="url(#paint0_linear_131_3863)"></path><path d="M16.3222 28.7564L3.64586 0.860352L0 6.75952L9.64752 28.7564H16.3222Z" fill="url(#paint1_linear_131_3863)"></path><path d="M26.9211 4.20996L19.0685 5.60976L17.8906 9.10927L26.9211 4.20996Z" fill="url(#paint2_linear_131_3863)"></path><path d="M26.9767 3.51004L20.0776 2.66016L19.6289 4.05996L26.9767 3.51004Z" fill="url(#paint3_linear_131_3863)"></path><path d="M29.4453 6.70996H33.0351V28.7569H29.4453V6.70996Z" fill="white"></path><path d="M36.8516 6.70996H42.068C45.209 6.70996 46.8356 8.25974 46.8356 11.3593V14.6588C46.8356 16.6086 45.8821 17.8584 44.0311 18.5083L48.0135 28.7569H44.0872L40.8901 19.0582L40.4413 19.1082V28.7569H36.8516V6.70996ZM40.4413 9.85952V16.1586H41.2827C41.7875 16.1586 42.124 16.1086 42.2923 16.0586C42.9654 15.8087 43.2458 15.3587 43.2458 14.6588V11.3593C43.2458 10.3594 42.741 9.85952 41.6753 9.85952H40.4413Z" fill="white"></path><path d="M59.512 6.70996V9.85952H56.1466V28.7569H52.5568V9.85952H49.1914V6.70996H59.512Z" fill="white"></path><path d="M72.4076 24.4575C72.4076 27.557 70.7249 29.1068 67.3034 29.1068C63.8819 29.1068 62.1992 27.557 62.1992 24.4575V6.70996H65.789V24.4575C65.789 25.4573 66.2938 25.9572 67.3595 25.9572C68.4252 25.9572 68.93 25.4573 68.93 24.4575V6.70996H72.5198V24.4575H72.4076Z" fill="white"></path><path d="M85.9834 20.958L87.1613 28.7569H83.5715L82.8984 24.1075H79.2525L78.5234 28.7569H74.9336L76.1115 20.958L78.6355 6.70996H83.5154L85.9834 20.958ZM82.3936 20.958L81.0474 11.8092L79.6452 20.958H82.3936Z" fill="white"></path><path d="M89.8008 28.7569V6.70996H93.3906V25.6073H99.0557V28.7569H89.8008Z" fill="white"></path><path d="M118.626 24.4575C118.626 27.5571 116.944 29.1068 113.522 29.1068C110.101 29.1068 108.418 27.5571 108.418 24.4575V10.9594C108.418 7.85984 110.101 6.31006 113.522 6.31006C116.944 6.31006 118.626 7.85984 118.626 10.9594V13.909H115.037V10.9594C115.037 9.95954 114.532 9.45962 113.466 9.45962C112.456 9.45962 111.952 9.95954 111.952 10.9594V24.4575C111.952 25.4574 112.456 25.9573 113.522 25.9573C114.588 25.9573 115.093 25.4574 115.093 24.4575V21.5079H118.682V24.4575H118.626Z" fill="white"></path><path d="M122.051 6.70996H125.641V16.1586H128.726V6.70996H132.315V28.7569H128.726V19.3082H125.641V28.7569H122.051V6.70996Z" fill="white"></path><path d="M145.999 20.958L147.177 28.7569H143.587L142.914 24.1075H139.268L138.539 28.7569H134.949L136.127 20.958L138.651 6.70996H143.531L145.999 20.958ZM142.409 20.958L141.063 11.8092L139.717 20.958H142.409Z" fill="white"></path><path d="M149.871 28.7569V6.70996H153.461V25.6073H159.126V28.7569H149.871Z" fill="white"></path><path d="M161.762 28.7569V6.70996H165.351V25.6073H171.017V28.7569H161.762Z" fill="white"></path><path d="M173.652 6.70996H182.907V9.85952H177.242V16.1586H182.122V19.3082H177.242V25.6073H182.907V28.7569H173.652V6.70996Z" fill="white"></path><path d="M186.051 6.70996H189.641L193.006 19.5082V6.70996H196.315V28.7569H192.726L189.472 16.3586V28.7569H186.051V6.70996Z" fill="white"></path><path d="M210.111 24.4575C210.111 27.5571 208.428 29.1068 205.007 29.1068C201.585 29.1068 199.902 27.5571 199.902 24.4575V10.9594C199.902 7.85984 201.585 6.31006 205.007 6.31006C208.428 6.31006 210.111 7.85984 210.111 10.9594V13.909H206.521V10.9594C206.521 9.95954 206.016 9.45962 204.95 9.45962C203.941 9.45962 203.436 9.95954 203.436 10.9594V24.4575C203.436 25.4574 203.941 25.9573 205.007 25.9573C206.072 25.9573 206.577 25.4574 206.577 24.4575V19.3082H205.007V16.1587H210.111V24.4575Z" fill="white"></path><path d="M213.645 6.70996H222.899V9.85952H217.234V16.1586H222.114V19.3082H217.234V25.6073H222.899V28.7569H213.645V6.70996Z" fill="white"></path><defs><linearGradient id="paint0_linear_131_3863" x1="9.79638" y1="17.2095" x2="26.6925" y2="17.2095" gradientUnits="userSpaceOnUse"><stop offset="0.0105613" stop-color="#C13EFF"></stop><stop offset="1" stop-color="#4C9EFF"></stop></linearGradient><linearGradient id="paint1_linear_131_3863" x1="1.28721" y1="3.11518" x2="10.7874" y2="29.1016" gradientUnits="userSpaceOnUse"><stop stop-color="#00E8BF"></stop><stop offset="0.1768" stop-color="#00E1C3"></stop><stop offset="0.4286" stop-color="#00CFCF"></stop><stop offset="0.7239" stop-color="#00B0E2"></stop><stop offset="1" stop-color="#008DF8"></stop></linearGradient><linearGradient id="paint2_linear_131_3863" x1="17.8658" y1="6.65322" x2="26.9181" y2="6.65322" gradientUnits="userSpaceOnUse"><stop offset="0.0105613" stop-color="#C13EFF"></stop><stop offset="1" stop-color="#4C9EFF"></stop></linearGradient><linearGradient id="paint3_linear_131_3863" x1="19.6114" y1="3.36151" x2="26.9697" y2="3.36151" gradientUnits="userSpaceOnUse"><stop offset="0.0105613" stop-color="#C13EFF"></stop><stop offset="1" stop-color="#4C9EFF"></stop></linearGradient></defs></svg>